#!OML:ASF E:\VariousWalksJay\Project 1\Capture day 1\Session 1\Actor2.ASF
:FULLY-SPECIFIED
:DEGREES
901
root -0.561581 18.453 -0.524841 201.769 -28.2758 -181.657
lowerback 12.8853 -5.82125 6.8614
upperback 5.12396 -7.34028 2.29242
thorax -2.2807 -3.82215 -0.317694
lowerneck -12.4145 1.7003 -2.39156
upperneck -10.9046 1.48474 3.4707
head -1.4264 0.252307 1.54747
rclavicle -1.94312e-014 8.94531e-016
rhumerus 33.2169 -24.1017 11.9615
rradius 91.6042
rwrist -17.3656
rhand -23.8497 -16.3209
rfingers 7.12502
rthumb 2.62252 -46.2845
lclavicle -1.94312e-014 8.94531e-016
lhumerus 90.101 31.5113 19.2892
lradius 28.3317
lwrist 21.5298
lhand -20.6085 -0.294183
lfingers 7.12502
lthumb 5.75233 29.6077
rfemur -63.9932 -1.52036 20.9314
rtibia 62.7148
rfoot 21.3273 3.66476
rtoes 4.59774
lfemur -32.2472 20.7928 -21.2915
ltibia 44.875
lfoot 9.73228 -7.7859
ltoes -7.9655
902
root -0.617515 18.3675 -0.726739 201.811 -28.7869 -182.834
lowerback 12.3547 -5.9139 6.74191
upperback 4.96852 -7.47098 1.63452
thorax -2.24693 -3.86048 -0.955833
lowerneck -12.1477 1.20074 -2.87854
upperneck -9.83149 1.03192 4.08121
head -1.11398 0.117841 1.81323
rclavicle -3.926e-014 6.36111e-015
rhumerus 34.3983 -24.7282 12.8418
rradius 89.4461
rwrist -17.4172
rhand -23.9792 -16.2022
rfingers 7.12502
rthumb 2.49744 -46.1673
lclavicle -3.926e-014 6.36111e-015
lhumerus 87.5226 30.6152 14.9579
lradius 30.1307
lwrist 23.857
lhand -19.3215 0.315607
lfingers 7.12502
lthumb 6.9948 30.18
rfemur -59.4755 -1.99504 20.2931
rtibia 58.2843
rfoot 18.3045 3.84158
rtoes 3.80481
lfemur -33.2993 20.6256 -20.1224
ltibia 51.2556
lfoot 9.18439 -7.63891
ltoes -9.75663
903
root -0.672389 18.2685 -0.925533 201.643 -29.0817 -184.084
lowerback 12.0378 -5.91825 6.45039
upperback 4.88537 -7.50931 0.897704
thorax -2.23574 -3.86198 -1.57849
lowerneck -11.7842 0.759728 -3.19369
upperneck -8.89634 0.606041 4.60915
head -0.857226 -0.021274 2.02541
rclavicle -3.56322e-014 -2.0773e-014
rhumerus 35.7908 -25.3311 13.7389
rradius 86.9111
rwrist -17.1763
rhand -24.0585 -15.9792
rfingers 7.12502
rthumb 2.42083 -45.9452
lclavicle -3.56322e-014 -2.0773e-014
lhumerus 85.5651 29.676 11.5033
lradius 31.7519
lwrist 24.8846
lhand -18.2066 0.545172
lfingers 7.12502
lthumb 8.07093 30.3711
rfemur -54.8768 -2.31249 19.4811
rtibia 54.3313
rfoot 14.3308 4.59245
rtoes 2.65026
lfemur -33.8843 20.2798 -18.6821
ltibia 57.5858
lfoot 8.59916 -7.56382
ltoes -11.3195
904
root -0.724648 18.1656 -1.11839 201.25 -29.1369 -185.332
lowerback 12.0017 -5.82229 6.00637
upperback 4.87431 -7.43596 0.111345
thorax -2.27809 -3.81874 -2.16204
lowerneck -11.3765 0.412918 -3.39131
upperneck -8.09676 0.26471 5.13198
head -0.651664 -0.133971 2.21996
rclavicle 5.96851e-014 -1.43622e-014
rhumerus 37.3704 -25.9356 14.6016
rradius 83.967
rwrist -16.5918
rhand -24.1025 -15.6449
rfingers 7.12502
rthumb 2.37834 -45.6114
lclavicle 5.96851e-014 -1.43622e-014
lhumerus 84.1573 28.8214 8.86527
lradius 33.1551
lwrist 24.803
lhand -17.3884 0.449187
lfingers 7.12502
lthumb 8.86058 30.2432
rfemur -50.2776 -2.47191 18.6346
rtibia 50.8159
rfoot 9.58149 5.61857
rtoes 1.34473
lfemur -34.0653 19.7784 -16.9492
ltibia 63.7842
lfoot 8.0739 -7.82278
ltoes -12.8988
905
root -0.7755 18.0675 -1.30259 200.594 -28.9641 -186.366
lowerback 12.2666 -5.62409 5.60496
upperback 4.92273 -7.22843 -0.660527
thorax -2.40788 -3.71912 -2.7496
lowerneck -10.8871 0.162388 -3.44197
upperneck -7.55998 0.00482447 5.59441
head -0.546019 -0.226682 2.37259
rclavicle 7.8023e-014 3.67752e-015
rhumerus 39.1256 -26.5821 15.3679
rradius 80.6421
rwrist -15.7409
rhand -23.9789 -15.2473
rfingers 7.12502
rthumb 2.4977 -45.2125
lclavicle 7.8023e-014 3.67752e-015
lhumerus 83.1922 28.1473 6.9533
lradius 34.3357
lwrist 23.9711
lhand -16.8211 0.181002
lfingers 7.12502
lthumb 9.40798 29.951
rfemur -45.8046 -2.46411 17.9969
rtibia 47.6943
rfoot 4.41583 6.45377
rtoes 0.289908
lfemur -33.9558 19.1463 -14.8057
ltibia 69.77
lfoot 7.59486 -8.50593
ltoes -14.6539
906
root -0.825957 17.991 -1.47689 199.719 -28.5716 -186.893
lowerback 12.7399 -5.32775 5.52611
upperback 4.98731 -6.85686 -1.32909
thorax -2.63347 -3.5442 -3.4206
lowerneck -10.3475 -0.0125081 -3.4083
upperneck -7.30179 -0.186801 6.04198
head -0.541097 -0.304315 2.50908
rclavicle -9.41742e-015 6.70898e-015
rhumerus 41.0645 -27.318 15.9666
rradius 76.9923
rwrist -14.7089
rhand -23.6646 -14.8563
rfingers 7.12502
rthumb 2.80123 -44.8176
lclavicle -9.41742e-015 6.70898e-015
lhumerus 82.5666 27.7284 5.68278
lradius 35.3145
lwrist 22.7307
lhand -16.5989 -0.161254
lfingers 7.12502
lthumb 9.62235 29.599
rfemur -41.6744 -2.20223 17.8395
rtibia 44.8553
rfoot -0.615217 6.69619
rtoes -0.108557
lfemur -33.7773 18.4514 -12.1136
ltibia 75.4413
lfoot 7.12594 -9.50234
ltoes -16.3626
907
root -0.877027 17.9181 -1.63522 198.91 -27.8808 -187.128
lowerback 13.2934 -4.92663 5.58568
upperback 5.0286 -6.3308 -1.92157
thorax -2.90474 -3.29629 -4.11919
lowerneck -9.78731 -0.133783 -3.35148
upperneck -7.34443 -0.326772 6.50013
head -0.638991 -0.374606 2.64924
rclavicle -3.62782e-015 1.20513e-014
rhumerus 43.1956 -28.2063 16.3049
rradius 73.1046
rwrist -13.6122
rhand -23.1181 -14.4969
rfingers 7.12502
rthumb 3.32907 -44.4506
lclavicle -3.62782e-015 1.20513e-014
lhumerus 82.1916 27.6113 4.99451
lradius 36.1637
lwrist 21.4129
lhand -16.5288 -0.421676
lfingers 7.12502
lthumb 9.68994 29.3354
rfemur -38.2271 -1.65686 17.8987
rtibia 42.3307
rfoot -4.95344 6.20564
rtoes 0.233653
lfemur -33.8451 17.6911 -9.22907
ltibia 80.8408
lfoot 6.56443 -10.5778
ltoes -17.889
